<?xml version="1.0" encoding="UTF-8"?>
<svg id="Layer_1" data-name="Layer 1" xmlns="http://www.w3.org/2000/svg" viewBox="0 0 4668.55 1000">
  <defs>
    <style>
      .cls-1 {
        fill: #3d5a85;
      }

      .cls-2 {
        fill: #92d8d2;
      }

      .cls-3 {
        fill: #333;
      }
    </style>
  </defs>
  <path class="cls-1" d="M400,500c0,220.89-179.11,400-400,400V100c220.89,0,400,179.11,400,400Z"/>
  <path class="cls-2" d="M400,100h400v400c-220.89,0-400-179.11-400-400Z"/>
  <g>
    <path class="cls-3" d="M1629.98,755c0,23.8-17.84,42.49-41.64,42.49-14.45,0-26.35-7.65-33.99-16.99l-159.75-202.25h-102.82v175.05c0,25.49-20.4,46.74-45.04,46.74-26.35,0-46.74-21.25-46.74-46.74V250.24c0-28.89,21.24-50.14,50.14-50.14h155.51c132.57,0,216.69,81.58,216.69,188.66,0,85.82-50.14,152.1-134.27,177.6l130.87,159.76c6.8,7.65,11.05,17.84,11.05,28.89ZM1291.78,499.22h110.47c78.18,0,130.86-31.44,130.86-110.46,0-74.78-52.69-109.62-130.86-109.62h-110.47v220.09Z"/>
    <path class="cls-3" d="M2114.32,559.56c0,34.84-19.55,48.43-56.08,48.43l-284.67-.85c9.35,79.03,71.38,118.12,139.36,118.12,34.84,0,58.64-8.5,84.98-24.65,14.45-7.65,23.8-13.59,35.69-13.59,19.55,0,31.44,13.59,31.44,32.28,0,11.06-4.25,22.95-22.94,38.25-32.29,26.34-79.03,41.64-132.57,41.64-110.47,0-228.59-70.53-228.59-224.34s123.21-226.89,220.09-226.89,213.29,76.48,213.29,211.6ZM1773.57,542.56h253.23c-7.65-80.73-68.83-116.42-125.77-116.42s-119.82,35.69-127.46,116.42Z"/>
    <path class="cls-3" d="M2912.23,545.11v209.05c0,24.64-20.39,45.03-44.19,45.03s-45.04-20.4-45.04-45.03v-209.05c0-84.98-48.44-118.96-103.67-118.96-81.58,0-117.27,73.08-123.22,109.62v218.39c0,24.64-19.55,45.03-44.19,45.03s-45.04-20.4-45.04-45.03v-209.05c0-84.98-48.44-118.96-103.67-118.96-81.58,0-117.27,73.08-122.37,109.62v218.39c0,24.64-20.39,45.03-45.03,45.03s-45.04-20.4-45.04-45.03v-357.76c0-25.5,20.39-45.9,45.04-45.9s45.03,20.4,45.03,45.9v56.08c4.25-29.74,55.24-103.67,152.11-103.67,62.89,0,125.77,30.59,151.26,109.62,23.8-52.69,78.18-109.62,164.86-109.62s163.16,51.83,163.16,196.29Z"/>
    <path class="cls-3" d="M3014.14,224.75c0-24.65,21.24-45.04,45.89-45.04s45.89,20.4,45.89,45.04-21.24,45.03-45.89,45.03-45.89-20.4-45.89-45.03ZM3105.07,396.41v357.76c0,25.49-20.4,45.89-45.04,45.89s-45.04-20.4-45.04-45.89v-357.76c0-25.5,20.4-45.9,45.04-45.9s45.04,20.4,45.04,45.9Z"/>
    <path class="cls-3" d="M3613.21,545.11v209.05c0,24.64-19.55,45.03-44.19,45.03s-45.04-20.4-45.04-45.03v-209.05c0-84.98-48.44-118.96-103.67-118.96-81.58,0-117.27,73.08-122.37,109.62v218.39c0,24.64-20.39,45.03-45.03,45.03s-45.04-20.4-45.04-45.03v-357.76c0-25.5,20.39-45.9,45.04-45.9s45.03,20.4,45.03,45.9v56.08c4.25-29.74,55.24-103.67,152.11-103.67,82.43,0,163.16,51.83,163.16,196.29Z"/>
    <path class="cls-3" d="M4135.78,233.25v521.75c0,24.65-21.24,45.04-45.89,45.04s-45.04-20.4-45.04-45.04v-45.89c-5.94,38.24-58.64,91.77-139.36,91.77-94.33,0-207.34-73.08-207.34-226.88s113.87-226.04,207.34-226.04c62.89,0,117.27,32.29,139.36,81.58v-33.99c0-2.56,0-5.95.85-8.5v-153.8c0-24.65,20.4-45.04,44.19-45.04s45.89,20.4,45.89,45.04ZM4049.1,574.01c0-106.23-71.37-148.71-129.17-148.71-62.03,0-131.71,48.44-131.71,148.71s69.68,149.55,131.71,149.55c57.79,0,129.17-44.18,129.17-149.55Z"/>
    <path class="cls-3" d="M4668.55,574.86c0,152.1-126.61,226.03-224.34,226.03s-223.5-73.93-223.5-226.03,125.77-226.89,223.5-226.89,224.34,75.64,224.34,226.89ZM4309.94,574.86c0,96.02,68.84,147.86,134.27,147.86s135.11-51.84,135.11-147.86-68.83-148.71-135.11-148.71-134.27,51.84-134.27,148.71Z"/>
  </g>
</svg>