<?xml version="1.0" encoding="UTF-8"?>
<svg id="Layer_1" data-name="Layer 1" xmlns="http://www.w3.org/2000/svg" viewBox="0 0 3901.43 1000">
  <defs>
    <style>
      .cls-1 {
        fill: #cd87a8;
      }

      .cls-2 {
        fill: #5a4863;
      }

      .cls-3 {
        fill: #333;
      }
    </style>
  </defs>
  <g>
    <path class="cls-3" d="M1563.04,269c12.73,16.12,19.51,28.84,19.51,42.41,0,20.36-15.27,36.48-38.17,36.48-16.96,0-29.69-7.63-39.02-19.51-23.75-31.39-50.04-53.44-98.39-53.44-60.23,0-97.55,31.39-97.55,78.04,0,37.32,24.6,64.46,79.73,85.67l41.56,16.11c119.61,45.81,180.68,89.08,180.68,174.74,0,112.82-111.12,170.5-209.51,170.5-72.1,0-145.89-31.37-184.07-89.9-6.78-9.34-17.81-24.6-17.81-43.26,0-20.36,12.72-39.87,38.17-39.87,20.35,0,34.78,12.73,44.11,27.14,28.84,44.11,71.25,64.46,119.6,64.46,53.44,0,115.36-22.9,115.36-89.06,0-53.44-39.87-73.8-105.18-99.24l-45.8-17.81c-84.82-33.09-148.44-77.19-148.44-160.32,0-95.85,83.13-157.77,185.76-157.77,78.04,0,128.08,33.93,159.47,74.64Z"/>
    <path class="cls-3" d="M2126.23,574.38c0,151.82-126.39,225.62-223.94,225.62s-223.09-73.8-223.09-225.62,125.54-226.48,223.09-226.48,223.94,75.5,223.94,226.48ZM1768.27,574.38c0,95.85,68.7,147.59,134.02,147.59s134.87-51.75,134.87-147.59-68.71-148.44-134.87-148.44-134.02,51.75-134.02,148.44Z"/>
    <path class="cls-3" d="M2398.22,500l47.76-121.57c6.79-17.81,21.21-27.99,40.72-27.99s33.08,10.19,40.72,27.99l111.97,285.01,93.31-288.4c4.24-15.27,22.05-24.6,38.17-24.6,23.75,0,42.41,18.67,42.41,42.41,0,6.79-3.39,12.73-5.94,20.36l-119.6,348.62c-7.63,22.06-23.75,33.94-42.41,33.94s-34.78-11.88-44.11-33.94l-114.51-279.91-115.36,279.91c-8.48,22.06-24.6,33.94-43.26,33.94s-34.78-11.88-42.41-33.94l-119.6-348.62c-2.55-7.63-5.94-13.57-5.94-20.36,0-23.74,18.66-42.41,42.41-42.41,16.12,0,33.08,10.19,38.17,24.6l93.31,288.4,64.21-163.44"/>
    <path class="cls-3" d="M2889.54,224.9c0-24.6,21.21-44.96,45.8-44.96s45.81,20.36,45.81,44.96-21.21,44.95-45.81,44.95-45.8-20.36-45.8-44.95ZM2980.31,396.25v357.11c0,25.44-20.36,45.8-44.96,45.8s-44.96-20.36-44.96-45.8v-357.11c0-25.45,20.36-45.81,44.96-45.81s44.96,20.36,44.96,45.81Z"/>
    <path class="cls-3" d="M3370.47,414.06c5.09,7.63,11.88,16.97,11.88,31.39,0,21.2-16.11,33.93-36.47,33.93-13.57,0-26.29-5.93-39.02-22.9-16.96-21.2-40.72-35.63-75.49-35.63-42.41,0-67.86,21.21-67.86,51.75,0,21.2,11.88,41.56,56.83,54.29l52.59,14.42c72.1,19.51,126.39,51.75,126.39,122.99,0,89.08-83.98,134.03-172.2,134.03-73.8,0-125.54-32.24-147.59-67.01-4.24-5.93-17.81-22.9-17.81-43.26,0-17.81,11.03-36.47,34.78-36.47,19.51,0,29.68,11.88,38.17,24.59,21.21,35.63,55.98,47.5,92.46,47.5,49.2,0,83.13-20.36,83.13-54.29,0-25.44-17.81-44.1-60.22-55.98l-56.83-15.27c-82.28-22.91-117.9-67.01-117.9-124.69,0-79.74,72.1-125.54,154.38-125.54,61.08,0,113.66,24.6,140.81,66.16Z"/>
    <path class="cls-3" d="M3901.43,574.38c0,151.82-126.39,225.62-223.94,225.62s-223.08-73.8-223.08-225.62,125.54-226.48,223.08-226.48,223.94,75.5,223.94,226.48ZM3543.48,574.38c0,95.85,68.7,147.59,134.02,147.59s134.87-51.75,134.87-147.59-68.71-148.44-134.87-148.44-134.02,51.75-134.02,148.44Z"/>
  </g>
  <path class="cls-1" d="M400,500c0,220.89-179.11,400-400,400V100c220.89,0,400,179.11,400,400Z"/>
  <path class="cls-2" d="M400,500c0-220.89,179.11-400,400-400v800c-220.89,0-400-179.11-400-400Z"/>
</svg>