<svg xmlns="http://www.w3.org/2000/svg" viewBox="0 0 750.63 125.55"><path d="M548.4 45.17c-.75 18.66-13.88 29.34-29.44 29.34-16.69 0-33.09-13.7-33.09-33.47s16.31-33.47 33-33.47c6.75 0 12.38 1.97 16.97 5.25 2.16 1.5 3.28 2.8 3.28 4.69 0 2.16-1.69 3.56-3.66 3.56-1.59 0-2.72-.84-3.94-1.78-2.62-2.16-7.4-4.22-12.75-4.22-12.56 0-24.66 10.88-24.66 25.97S506.21 67 518.95 67c11.06 0 20.53-7.41 21.66-19.78h-15.66c-1.97 0-3.56-1.5-3.56-3.38s1.6-3.38 3.56-3.38h19.31c2.91 0 4.22 1.97 4.12 4.69h.02ZM586.75 28.3c0 2.25-1.78 3.75-5.06 3.75-8.9 0-14.8 7.03-15.75 12.84v25.5c0 2.16-1.78 3.94-3.84 3.94s-3.94-1.78-3.94-3.94V28.77c0-2.16 1.78-3.94 3.94-3.94s3.84 1.78 3.84 3.94v7.59c.56-3.2 6.56-11.72 16.6-11.72 2.71 0 4.21 1.59 4.21 3.66ZM638.87 49.58c0 16.78-13.59 24.94-24.47 24.94s-24.38-8.16-24.38-24.94 13.6-25.03 24.38-25.03 24.47 8.34 24.47 25.03Zm-41.16 0c0 12 8.91 18.09 16.7 18.09s16.68-6.1 16.68-18.1-8.8-18.18-16.69-18.18-16.69 6.09-16.69 18.19ZM648.25 53.6V28.78c0-2.06 1.78-3.94 3.94-3.94s3.84 1.88 3.84 3.94V53.6c0 10.22 6.2 14.06 12.75 14.06 9.56 0 14.44-8.06 15.28-13.41v-25.5c0-2.06 1.78-3.94 3.84-3.94s3.94 1.88 3.94 3.94v41.62c0 2.16-1.78 3.94-3.94 3.94s-3.84-1.78-3.84-3.94v-7.6c-.56 3.2-6.38 11.73-17.53 11.73-8.8 0-18.28-5.34-18.28-20.91ZM750.63 49.49c0 16.88-12.66 25.03-23.06 25.03-8.25 0-14.62-4.88-16.59-10.5V88.2c0 2.16-1.88 3.94-3.94 3.94s-3.94-1.78-3.94-3.94V28.77a3.9 3.9 0 0 1 3.94-3.94 3.94 3.94 0 0 1 3.84 3.94v5.62c2.91-6.28 9.56-9.84 16.7-9.84 10.4 0 23.05 8.25 23.05 24.94Zm-7.78 0c0-12.28-8.8-18.2-16.4-18.2s-15.95 5.35-15.95 18.2 8.62 18.19 15.94 18.19 16.41-5.81 16.41-18.2ZM33.38 83.5a22.38 22.38 0 0 1-20.7-13.76 10.15 10.15 0 0 0-3.33-4.2C.13 58.6-2.58 47.03 2.6 36.77c.96-1.9 1.36-3.73 1.3-5.92A22.4 22.4 0 0 1 21.92 8.1a12.77 12.77 0 0 0 5.86-2.8 22.4 22.4 0 0 1 29.08.12A11.45 11.45 0 0 0 62 7.99c11.95 2.54 18.91 11.59 18.62 24.19v.24c-.04.48.02 1.84 1.16 4.09 5.42 10.75 2.8 21.95-6.84 29.23a10.9 10.9 0 0 0-3.24 4.28C66.77 80.5 56.34 85.49 45.11 82.7a11.27 11.27 0 0 0-5.7.02c-2.03.52-4.04.77-6 .77h-.03Zm8.88-68.9c-1.77 0-3.55.66-5.13 1.97a27.17 27.17 0 0 1-12.33 5.88 7.9 7.9 0 0 0-6.27 7.94c.14 4.64-.8 8.88-2.86 12.97-2 3.96-1.09 7.8 2.51 10.5a24.82 24.82 0 0 1 7.94 10.05c1.71 3.95 5.4 5.73 9.62 4.64a26 26 0 0 1 12.88-.06c4.46 1.1 7.85-.52 9.81-4.7a25.26 25.26 0 0 1 7.67-9.74c3.96-3 4.8-6.57 2.6-10.97-1.99-3.92-2.9-7.74-2.73-11.35.1-5.47-2.07-8.4-7.03-9.44a26.27 26.27 0 0 1-11.5-5.7 8.04 8.04 0 0 0-5.18-2ZM160.56 30.3c0 11.73-9.47 21.48-24.09 21.48h-10.3v15.47c0 4.22-3.39 7.69-7.6 7.69s-7.78-3.47-7.78-7.7V17.1c0-4.97 3.56-8.53 8.53-8.53h17.16c14.62 0 24.1 9.94 24.1 21.75l-.02-.01Zm-14.9 0c0-7.02-4.7-8.61-10.04-8.61h-9.47v16.97h9.47c5.34 0 10.03-1.41 10.03-8.34v-.01ZM215.6 32.56v34.78c0 4.12-3.67 7.4-7.7 7.4a7.52 7.52 0 0 1-7.3-5.8c-1.42 2.44-5.54 5.9-12.39 5.9-10.3 0-22.5-7.87-22.5-25.02s12.38-24.94 22.5-24.94c6.38 0 10.97 3.56 12.2 6.84v.84c0-4.03 3.46-7.41 7.5-7.41s7.68 3.38 7.68 7.4ZM201.05 49.8c0-9.2-5.9-12.2-10.03-12.2-5.34 0-10.3 4.23-10.3 12.2s4.96 12.28 10.3 12.28c4.12 0 10.03-2.91 10.03-12.28ZM262 31.72c0 4.22-3.09 7.03-9.47 7.03s-10.5 4.97-10.69 7.69v20.8c0 4.04-3.47 7.42-7.5 7.42s-7.5-3.38-7.5-7.41v-34.5c0-4.22 3.47-7.6 7.5-7.6s7.5 3.39 7.5 7.6v2.9c.28-3.46 5.91-10.68 13.41-10.68 4.5 0 6.75 3.19 6.75 6.75ZM315.16 32.56v34.78c0 4.12-3.66 7.4-7.69 7.4a7.52 7.52 0 0 1-7.3-5.8c-1.42 2.44-5.54 5.9-12.39 5.9-10.3 0-22.5-7.87-22.5-25.02s12.38-24.94 22.5-24.94c6.38 0 10.97 3.56 12.2 6.84v.84c0-4.03 3.46-7.41 7.5-7.41s7.68 3.38 7.68 7.4ZM300.63 49.8c0-9.2-5.9-12.2-10.03-12.2-5.34 0-10.3 4.23-10.3 12.2s4.96 12.28 10.3 12.28c4.12 0 10.03-2.91 10.03-12.28ZM374.41 67.35c0 .66-.09 1.3-.28 1.97v3.94c0 15.19-14.62 20.16-24.56 20.16-5.62 0-10.3-1.5-12.38-2.16-3.28-1.41-4.97-3.75-4.97-6.47a5.88 5.88 0 0 1 5.91-5.91c.47 0 1.31 0 2.72.47 1.7.09 4.6 1.3 8.72 1.3 6.94 0 9.66-4.02 9.66-7.4v-4.03c-1.5 2.44-5.62 5.62-12.19 5.62-10.3 0-22.5-7.88-22.5-25.03s12.38-24.94 22.5-24.94c6.38 0 10.97 3.56 12.2 6.84v.84c0-4.03 3.46-7.41 7.5-7.41s7.68 3.38 7.68 7.4v34.81Zm-14.53-17.53c0-9.2-5.9-12.2-10.03-12.2-5.34 0-10.3 4.23-10.3 12.2s4.96 12.28 10.3 12.28c4.12 0 10.03-2.91 10.03-12.28ZM385.57 13.72c0-4.03 3.56-7.41 7.6-7.41s7.58 3.38 7.58 7.4-3.56 7.32-7.59 7.32-7.59-3.38-7.59-7.31Zm15.1 19.03v34.4c0 4.23-3.48 7.6-7.5 7.6s-7.5-3.38-7.5-7.6v-34.4c0-4.22 3.46-7.6 7.5-7.6s7.5 3.39 7.5 7.6ZM459.63 48.22v19.03c0 4.12-3.38 7.4-7.5 7.4s-7.4-3.27-7.4-7.4V48.22c0-7.31-3.39-10.6-8.35-10.6-7.69 0-9.38 7.79-9.38 8.82v20.8a7.51 7.51 0 0 1-15 0v-34.5c0-4.21 3.47-7.58 7.5-7.58s7.5 3.38 7.5 7.59v2.9c.28-3.46 5.62-10.68 15.2-10.68s17.43 6.75 17.43 23.25ZM116.95 115.25c0 .41-.15.76-.45 1.05-.3.29-.66.43-1.06.43a1.4 1.4 0 0 1-1.08-.43c-.27-.3-.4-.64-.4-1.05V93c0-.43.14-.78.43-1.06a1.5 1.5 0 0 1 1.08-.41c.41 0 .76.14 1.05.41.28.28.43.63.43 1.06v22.25ZM132.03 97.65a6.5 6.5 0 0 1 3.85 1c.94.68 1.6 1.58 2 2.7.4 1.14.6 2.4.6 3.79v10.11a1.45 1.45 0 0 1-1.44 1.48 1.45 1.45 0 0 1-1.44-1.48v-10.04c0-.91-.14-1.74-.42-2.47a3.7 3.7 0 0 0-1.37-1.76 4.5 4.5 0 0 0-2.6-.67 5.85 5.85 0 0 0-4.8 2.43c-.5.73-.75 1.56-.75 2.47v10.04a1.45 1.45 0 0 1-1.44 1.48 1.45 1.45 0 0 1-1.44-1.48v-15.7c0-.4.14-.74.41-1.02a1.4 1.4 0 0 1 1.03-.41 1.38 1.38 0 0 1 1.44 1.44v2.55l-.72.8c.12-.63.4-1.26.83-1.9.43-.63.97-1.2 1.62-1.7s1.37-.91 2.16-1.21 1.62-.45 2.48-.45ZM143.08 98.22h8.46c.39 0 .7.14.96.4.25.26.38.58.38.94a1.3 1.3 0 0 1-1.34 1.33h-8.46c-.36 0-.67-.13-.93-.4-.27-.26-.4-.59-.4-.97 0-.36.13-.67.4-.92s.57-.38.93-.38Zm3.78-4.9c.41 0 .75.15 1.01.42.26.28.4.62.4 1.03v17.39c0 .57.08 1 .25 1.3s.39.48.67.59c.27.1.54.16.8.16.25 0 .46-.04.64-.13.18-.08.39-.12.63-.12.23 0 .46.11.66.34.2.23.3.52.3.88 0 .43-.24.8-.75 1.1-.5.3-1.07.45-1.7.45-.33 0-.74-.02-1.23-.07-.5-.05-.98-.2-1.46-.47-.48-.27-.88-.7-1.2-1.31a5.59 5.59 0 0 1-.5-2.58V94.77c0-.41.15-.75.44-1.03.29-.27.63-.41 1.04-.41ZM165.3 117.09c-1.93 0-3.6-.4-5.04-1.23a8.72 8.72 0 0 1-3.37-3.36 9.9 9.9 0 0 1-1.2-4.95c0-2.09.4-3.87 1.23-5.35a8.81 8.81 0 0 1 3.25-3.38 8.25 8.25 0 0 1 4.23-1.17c1.1 0 2.17.2 3.2.61s1.94 1 2.74 1.78c.79.78 1.42 1.72 1.9 2.81.48 1.1.73 2.31.76 3.65 0 .39-.14.71-.43.98-.3.26-.63.4-1.01.4h-14.22l-.65-2.5h13.86l-.57.51v-.79a4.72 4.72 0 0 0-1-2.54 5.77 5.77 0 0 0-4.58-2.21c-.73 0-1.44.12-2.15.38a5.1 5.1 0 0 0-1.9 1.22 6.27 6.27 0 0 0-1.37 2.18 8.78 8.78 0 0 0-.52 3.2c0 1.4.28 2.62.84 3.67a6.4 6.4 0 0 0 5.89 3.42 6.38 6.38 0 0 0 4.97-2.12c.3-.21.6-.32.9-.32.36 0 .65.12.88.36.22.24.34.52.34.86 0 .4-.2.77-.58 1.08-.67.74-1.58 1.4-2.73 1.96s-2.38.85-3.67.85ZM184.95 97.65c1.03 0 2 .17 2.88.52.89.35 1.66.8 2.32 1.35a7.34 7.34 0 0 1 1.55 1.73c.37.6.56 1.16.56 1.7l-.68-.44v-3.13c0-.41.13-.75.4-1.03.26-.27.6-.41 1.04-.41.4 0 .75.14 1.02.41.28.28.42.62.42 1.03v15.76c0 1.97-.42 3.6-1.25 4.9a7.75 7.75 0 0 1-3.33 2.92 10.95 10.95 0 0 1-7.05.68c-.87-.2-1.63-.43-2.3-.7-.68-.28-1.11-.56-1.3-.85a1.5 1.5 0 0 1-.67-.8.94.94 0 0 1 .16-.85c.22-.34.5-.5.85-.5s.79.1 1.31.32l1.03.36c.47.16 1 .31 1.58.45.6.13 1.17.2 1.75.2 2.04 0 3.6-.54 4.7-1.6a5.65 5.65 0 0 0 1.64-4.24v-3.34l.4.17c-.15.68-.45 1.3-.89 1.88a8.03 8.03 0 0 1-6.07 2.95c-1.68 0-3.19-.42-4.53-1.26-1.35-.84-2.4-2-3.19-3.46a10.47 10.47 0 0 1-1.17-5c0-1.9.4-3.58 1.17-5.04.78-1.46 1.84-2.61 3.17-3.44s2.83-1.24 4.48-1.24Zm.36 2.66a6.05 6.05 0 0 0-5.56 3.42 7.88 7.88 0 0 0-.81 3.64c0 1.32.27 2.51.81 3.58a6.36 6.36 0 0 0 2.27 2.54c.97.62 2.07.93 3.3.93 1.24 0 2.34-.3 3.3-.91a6.45 6.45 0 0 0 2.27-2.5c.55-1.06.83-2.27.83-3.64 0-1.4-.28-2.62-.83-3.67a6.12 6.12 0 0 0-5.58-3.38ZM201.22 116.73a1.45 1.45 0 0 1-1.44-1.48v-15.7c0-.4.14-.74.42-1.02a1.4 1.4 0 0 1 1.02-.41 1.38 1.38 0 0 1 1.44 1.44v4.75l-.43-.76a7.87 7.87 0 0 1 2.2-4.08 6.06 6.06 0 0 1 4.43-1.82c.52 0 1 .12 1.45.38.45.25.67.6.67 1.06 0 .5-.13.87-.4 1.11a1.3 1.3 0 0 1-.9.36c-.3 0-.6-.06-.9-.2-.28-.12-.64-.2-1.08-.2-.6 0-1.2.17-1.78.5s-1.13.78-1.62 1.38c-.5.6-.89 1.28-1.19 2.03-.3.76-.45 1.57-.45 2.43v8.75a1.45 1.45 0 0 1-1.44 1.48ZM229.12 97.94c.41 0 .75.14 1.03.41.28.28.41.62.41 1.03v15.87a1.45 1.45 0 0 1-1.44 1.48c-.43 0-.78-.14-1.04-.43-.27-.3-.4-.64-.4-1.05v-3.42l.69-.07c0 .53-.18 1.1-.54 1.73-.36.62-.85 1.2-1.48 1.74-.62.54-1.36.99-2.21 1.34a7.81 7.81 0 0 1-7.15-.76c-1.3-.85-2.32-2-3.08-3.47s-1.13-3.14-1.13-5c0-1.9.38-3.58 1.13-5.03s1.79-2.6 3.08-3.42a7.86 7.86 0 0 1 4.32-1.24c1.03 0 2 .17 2.88.5.89.34 1.66.8 2.32 1.37a6.79 6.79 0 0 1 1.55 1.9c.37.7.56 1.4.56 2.1l-.94-.22v-3.92c0-.41.13-.75.4-1.03.26-.27.61-.41 1.04-.41Zm-7.41 16.48c1.2 0 2.26-.3 3.18-.93a6.3 6.3 0 0 0 2.16-2.54c.52-1.07.78-2.27.78-3.62 0-1.32-.26-2.51-.78-3.58a6.17 6.17 0 0 0-2.16-2.52 5.64 5.64 0 0 0-3.18-.92c-1.18 0-2.23.3-3.15.9a6.18 6.18 0 0 0-2.18 2.49 8.03 8.03 0 0 0-.8 3.63c0 1.35.26 2.55.78 3.62a6.3 6.3 0 0 0 2.16 2.54c.93.62 1.99.93 3.19.93ZM235.17 98.22h8.46c.38 0 .7.14.96.4.25.26.37.58.37.94a1.3 1.3 0 0 1-1.33 1.33h-8.46c-.36 0-.67-.13-.93-.4-.27-.26-.4-.59-.4-.97 0-.36.13-.67.4-.92s.57-.38.93-.38Zm3.78-4.9c.4 0 .75.15 1 .42.27.28.4.62.4 1.03v17.39c0 .57.09 1 .26 1.3s.39.48.66.59c.28.1.55.16.81.16.24 0 .45-.04.63-.13.18-.08.4-.12.63-.12.24 0 .46.11.67.34.2.23.3.52.3.88 0 .43-.25.8-.75 1.1-.5.3-1.07.45-1.7.45-.33 0-.74-.02-1.23-.07-.5-.05-.98-.2-1.46-.47-.48-.27-.88-.7-1.2-1.31a5.59 5.59 0 0 1-.5-2.58V94.77c0-.41.15-.75.44-1.03.29-.27.63-.41 1.04-.41ZM250.3 95.42c-.6 0-1.05-.12-1.34-.36s-.43-.62-.43-1.12v-.5c0-.5.15-.88.46-1.12.32-.24.76-.36 1.34-.36.57 0 1 .12 1.3.36.28.24.42.61.42 1.12v.5c0 .5-.15.88-.45 1.12-.3.24-.73.36-1.3.36Zm1.43 19.83a1.45 1.45 0 0 1-1.44 1.48c-.43 0-.78-.14-1.04-.43-.27-.3-.4-.64-.4-1.05V99.27c0-.41.14-.75.41-1.03a1.4 1.4 0 0 1 1.03-.41c.4 0 .75.14 1.03.41.27.28.41.62.41 1.03v15.98ZM274.6 107.37c0 1.87-.42 3.54-1.25 5a9.04 9.04 0 0 1-8.08 4.72 9.13 9.13 0 0 1-8.12-4.72c-.83-1.46-1.24-3.13-1.24-5s.41-3.54 1.24-5a9.14 9.14 0 0 1 8.12-4.72 9.04 9.04 0 0 1 8.08 4.71 10 10 0 0 1 1.24 5Zm-2.89 0c0-1.4-.28-2.62-.85-3.67a6.14 6.14 0 0 0-5.6-3.38c-1.22 0-2.32.3-3.29.9a6.53 6.53 0 0 0-2.32 2.48 7.55 7.55 0 0 0-.86 3.67c0 1.37.28 2.58.86 3.63a6.67 6.67 0 0 0 2.32 2.5c.97.62 2.07.92 3.3.92s2.32-.3 3.3-.91a6.53 6.53 0 0 0 2.3-2.5 7.6 7.6 0 0 0 .84-3.64ZM288.16 97.65a6.5 6.5 0 0 1 3.85 1c.94.68 1.6 1.58 2 2.7.4 1.14.6 2.4.6 3.79v10.11a1.45 1.45 0 0 1-1.44 1.48 1.45 1.45 0 0 1-1.44-1.48v-10.04c0-.91-.14-1.74-.42-2.47a3.7 3.7 0 0 0-1.37-1.76 4.5 4.5 0 0 0-2.6-.67 5.85 5.85 0 0 0-4.8 2.43c-.5.73-.75 1.56-.75 2.47v10.04a1.45 1.45 0 0 1-1.44 1.48 1.45 1.45 0 0 1-1.44-1.48v-15.7c0-.4.14-.74.41-1.02a1.4 1.4 0 0 1 1.03-.41 1.38 1.38 0 0 1 1.44 1.44v2.55l-.72.8c.12-.63.4-1.26.83-1.9.43-.63.97-1.2 1.62-1.7s1.37-.91 2.16-1.21 1.62-.45 2.48-.45ZM298.89 113.78a1.51 1.51 0 0 1-.29-1c.03-.34.23-.65.61-.91.24-.17.53-.24.85-.22.32.03.62.18.88.47.67.8 1.44 1.42 2.3 1.9a6.58 6.58 0 0 0 4.9.4c.58-.16 1.06-.46 1.46-.88s.6-.98.6-1.67c0-.67-.21-1.2-.62-1.6-.4-.4-.93-.72-1.58-.97s-1.36-.48-2.13-.67c-.79-.22-1.57-.46-2.34-.74a9.02 9.02 0 0 1-2.07-1.04 4.56 4.56 0 0 1-2.03-3.9c0-1.09.3-2.03.88-2.82.59-.79 1.38-1.4 2.38-1.83 1-.44 2.08-.65 3.26-.65.67 0 1.37.08 2.1.23.73.16 1.45.42 2.14.8.7.37 1.31.88 1.84 1.52.22.24.34.54.36.9.02.36-.13.69-.47.98-.26.19-.56.27-.88.25-.32-.03-.6-.15-.81-.36a5 5 0 0 0-1.89-1.39 6.3 6.3 0 0 0-4.2-.23 3.1 3.1 0 0 0-1.38.84c-.37.4-.56.95-.56 1.64.03.65.24 1.18.65 1.59.4.4.96.73 1.66.99.7.25 1.46.5 2.3.73.77.2 1.5.42 2.21.67.71.25 1.35.58 1.93 1a4.43 4.43 0 0 1 1.87 3.95c0 1.1-.31 2.06-.93 2.86a5.89 5.89 0 0 1-2.47 1.84 8.59 8.59 0 0 1-3.3.63c-1.31 0-2.62-.25-3.9-.76a7.82 7.82 0 0 1-3.33-2.55Z" style="fill:#7b7aac"/></svg>