<?xml version="1.0" encoding="UTF-8"?>
<svg id="Laag_1" xmlns="http://www.w3.org/2000/svg" version="1.1" viewBox="0 0 551.10603 128.71495">
  <!-- Generator: Adobe Illustrator 29.6.1, SVG Export Plug-In . SVG Version: 2.1.1 Build 9)  -->
  <path d="M13.97722.99475v24.86841c10.86314-9.54547,28.75816-9.185,35.76575,4.65128,4.08131,8.05844,3.83075,29.34924,1.94466,38.39288-3.59229,17.22467-25.91753,22.40439-37.70235,9.67703l-.00807,5.96826H0V.99472h13.9772l.00002.00003ZM35.61644,69.30783c4.63589-4.61917,4.4276-24.83612,1.82826-30.5188-3.53329-7.72452-16.3903-8.51627-20.93229-1.94461-3.57785,5.17667-3.6025,23.22046-1.04515,28.81577,3.46352,7.57794,14.24362,9.53195,20.14919,3.64767l-.00002-.00003Z" style="fill: #dd171c;"/>
  <path d="M65.89253,42.77368c2.34641-17.44321,17.71458-27.4071,34.74574-22.18527,20.89764,6.40732,25.97148,34.18964,8.18507,47.04248,15.0517,8.22031,11.64233,30.82349-1.65993,39.63974-1.06491.70578-8.22746,4.13989-8.82382,4.13989h-17.4715l-.00461-12.93616c8.36758.27164,20.71896,1.29688,23.49844-8.91373,3.63951-13.36996-8.1217-18.39062-19.50478-16.94028l-.00018-11.94598c11.8521,1.48169,21.95915-1.8461,21.02126-15.46024-1.05421-15.30249-23.15764-17.36221-26.00851-2.44043h-13.9772l.00002-.00003Z" style="fill: #dd171c;"/>
  <path d="M263.57005,57.69473h-39.93484c-.63596,10.16345,6.0878,19.68146,16.97141,18.90262l-.00284,12.93051c-27.78455-.33453-36.19131-31.0524-28.14474-53.41336,7.53296-20.93365,36.8479-22.85501,47.28781-3.95523.95114,1.72189,3.82321,7.66205,3.82321,9.12228v16.41318ZM222.63683,46.75266h27.95441c-.97202-20.29312-26.40817-20.33655-27.95441,0Z" style="fill: #dd171c;"/>
  <path d="M190.68895,73.61053h-13.9772v-31.3342c0-.82166-2.78912-5.60406-3.74542-6.48251-4.25311-3.90686-12.76294-4.27649-17.1552-.41565-.97496.85699-4.05867,5.99738-4.05867,6.89816v31.3342h-13.9772V21.38687c3.44051-3.04926,9.55255-.86417,13.98177-1.49664l.49072,5.96906c10.40948-11.06277,30.02312-8.10806,35.94698,5.97061.53931,1.28171,2.4942,7.62344,2.4942,8.45697v33.32367h.00003Z" style="fill: #dd171c;"/>
  <path d="M363.40718,27.85263l12.98343-.00455.00357,6.96368,5.63892-4.81686c11.75525-5.6554,27.51178-1.21872,31.82681,11.74921.23993.72101,1.46259,6.16754,1.46259,6.50064v33.32367h-12.97882v-26.36053c0-.33298-1.22388-5.77017-1.46548-6.49774-3.24414-9.76935-16.82816-10.93713-22.50323-2.46265-.46118.68866-1.98895,3.58023-1.98895,3.98672v31.3342h-12.97882V27.85263Z" style="fill: #f2a8b0;"/>
  <path d="M298.51305,0v19.89474c9.71567-1.20523,12.16568,1.02313,9.04834,10.50745l-9.05273.43015.19485,42.09109c1.24927,4.26227,6.75174,1.72549,8.86066,3.10843,1.46494.96066,1.86935,11.53354-.69846,12.36517-6.87042,2.22513-19.91931-2.52484-20.88721-10.75278l-.43869-46.81186-6.06067-.43008c-1.88315-1.24347-.56143-8.13785-.93805-10.51215l6.99316.00461V.00003h12.97882l-.00003-.00003Z" style="fill: #dd171c;"/>
  <path d="M447.2704,16.91052v53.21841c2.34222,2.3316,5.88196,2.564,8.98389,2.4899l.0061,11.93835c-7.23816.22644-14.06439.66449-18.97662-5.47269-.55408-.69226-2.99219-4.68655-2.99219-4.97662V16.91052h12.97882Z" style="fill: #f2a8b0;"/>
  <path d="M431.17079,105.56772l3.62,15.79834c1.02802.00888,3.70856-15.17838,4.62042-15.79745.75592-.51321,2.73663.04831,3.85565-.13034l3.50433,14.93304,3.54578-14.88297,3.93774-.04227-5.11066,22.75159-3.78534.03571-4.57782-14.84152c-1.72968.02942-1.4834,18.18576-8.47803,14.93298l-4.9856-22.40042,3.85345-.35669h.00006Z" style="fill: #b6dbf4;"/>
  <path d="M331.17171,41.97107c13.2074-2.90079,14.5368,16.88568,2.72714,17.69595-10.73074.73624-12.93216-15.45456-2.72714-17.69595Z" style="fill: #f2a8b0;"/>
  <path d="M502.1808,105.44211c9.41541-1.08691,22.15552.6004,12.9837,11.92371,4.53302.34134,2.10254,7.28229,4.00269,10.44467.04431.8446-3.29877.76065-3.87347.37726-2.72565-1.8183,2.50641-12.87027-9.12341-9.81812l.00037,9.9556-3.98981-.00418v-22.87894h-.00006ZM506.1703,115.39352c11.26093,2.07553,11.22375-9.05759,0-6.97122v6.97122Z" style="fill: #b6dbf4;"/>
  <path d="M252.58388,112.40125c-4.69629,1.46912-3.90259-2.40222-5.9617-3.52121-8.89801-4.83545-12.63754,17.80615-.7706,16.25464,3.85098-.50348,2.73029-2.54718,2.75082-5.77026l-4.0098.00101.00336-2.97769,7.99643-.00809c-.01706,4.8923,1.40958,10.37012-4.69983,11.73181-16.88477,3.7634-16.99582-21.00156-5.7272-22.63303,4.71921-.68323,10.46466,1.50671,10.41846,6.92276l.00006.00006Z" style="fill: #b6dbf4;"/>
  <path d="M338.15129,105.6528c1.83871-.4129,4.82108-.54852,6.59848-.01636,8.4165,2.51993,9.27136,24.05258-4.82202,22.71924-3.38623-.32037-6.50195-2.25174-7.2641-5.71143-1.18332-5.37143-1.17639-15.49496,5.48764-16.99146ZM340.18037,108.58096c-6.97049,1.32324-6.43192,17.56311,1.73138,16.79077,6.6987-.63379,6.85669-18.42108-1.73138-16.79077Z" style="fill: #b6dbf4;"/>
  <path d="M156.74011,112.40128c-4.21651.72925-3.27264-3.89294-7.56639-3.97229-1.60506-.02966-4.01952,1.00317-4.36217,2.59189-.76118,3.52927,9.74457,4.84256,11.82237,7.95218,6.32704,9.4689-15.81712,14.1171-16.85799,2.38907,4.28006-1.25833,4.16042,2.06207,5.66245,3.03302,4.61288,2.98187,11.89877-1.19962,5.67368-4.88791-3.56911-2.11465-9.93073-2.11472-10.32613-7.66678-.61871-8.68777,17.36205-9.0769,15.95415.56079l.00003.00003Z" style="fill: #b6dbf4;"/>
  <path d="M316.47957,112.40125l-3.9053-.12042c.67249-4.51553-5.29642-4.71695-8.1265-2.27728-.98679,6.60757,9.09842,4.06879,11.52322,9.37073,4.98303,10.89557-16.25717,12.55347-16.45547,1.9877,4.66071-1.42563,4.03305,3.15796,7.72092,3.82874,1.12766.20511,5.1348-.23743,5.31186-1.43323,1.13269-7.64868-13.7095-3.97394-12.0481-13.80872,1.14185-6.75934,17.26602-6.44907,15.97937,2.45251v-.00003Z" style="fill: #b6dbf4;"/>
  <path d="M551.10103,105.44211l.005,2.98068-11.98999-.00104-.00977,6.40622c.30725,2.12805,12.43622-2.18817,10.00305,3.54218l-9.99329-.00104v6.97232l11.98999-.00104-.005,2.98068h-15.97394v-22.87894h15.97394v-.00003Z" style="fill: #b6dbf4;"/>
  <polygon points="284.53587 105.44211 284.54085 108.42279 273.54918 108.42175 273.54921 115.39407 283.5425 115.39304 283.5425 118.37015 273.54921 118.36911 273.54918 125.34143 285.5392 125.34039 285.53423 128.32108 269.56029 128.32108 269.56029 105.44211 284.53587 105.44211" style="fill: #b6dbf4;"/>
  <path d="M212.53725,105.56454l8.09946,22.75171-3.85004-.14059c-1.11459-6.33749-5.26813-4.77667-10.52234-4.88666-1.8627,3.53354-.28473,6.01233-5.58826,5.02725l8.12552-22.71875,3.73569-.03299-.00003.00003ZM211.64711,111.40799c-2.53622-.34122-1.56119.11374-2.07251,1.40289-.47549,1.19882-2.40002,7.07443-1.91061,7.54819h5.9848l-2.00168-8.95108Z" style="fill: #b6dbf4;"/>
  <path d="M479.16292,105.49268l8.04218,22.82037c-5.38953,1.05905-3.96637-2.02203-5.4884-3.97357-1.45575-1.86649-6.86792-.85782-9.36462-.87589l-1.22534,4.75323-3.88483.1001c-.17725-1.07553.16833-2.0282.4231-3.04944.50659-2.03116,6.39398-18.04321,7.0528-18.8378,1.1239-1.35547,2.78473-1.10703,4.44519-.93701h-.00006ZM480.21315,120.3584c.32532-.30865-2.04047-6.83221-2.50641-7.95343-.39655-.95432-.10437-2.27667-1.47467-1.98441l-3.00378,9.93463,6.98486.0032Z" style="fill: #b6dbf4;"/>
  <polygon points="382.37624 105.44211 382.38124 108.42279 371.38957 108.42175 371.3896 115.39407 381.38289 115.39304 381.38289 118.37015 371.38957 118.36911 371.39052 128.32526 367.40068 128.32108 367.40068 105.44211 382.37624 105.44211" style="fill: #b6dbf4;"/>
  <polygon points="188.69221 105.44211 188.69716 108.42279 181.7036 108.42633 181.7036 128.32108 178.70848 128.32108 178.70848 108.42633 171.71492 108.42279 171.71989 105.44211 188.69221 105.44211" style="fill: #b6dbf4;"/>
  <polygon points="413.32576 105.44211 413.3307 108.42279 406.33717 108.42633 406.33717 128.32108 403.34203 128.32108 403.34203 108.42633 396.34846 108.42279 396.35344 105.44211 413.32576 105.44211" style="fill: #b6dbf4;"/>
</svg>