<?xml version="1.0" encoding="UTF-8"?>
<svg id="Layer_1" data-name="Layer 1" xmlns="http://www.w3.org/2000/svg" viewBox="0 0 5729.16 1000">
  <defs>
    <style>
      .cls-1 {
        fill: #a7c4e1;
      }

      .cls-2 {
        fill: #333;
      }

      .cls-3 {
        fill: #77424d;
      }
    </style>
  </defs>
  <g>
    <path class="cls-2" d="M1765.73,540.96c-6.8,167.32-128.25,259.04-264.99,259.04-151.18,0-300.66-124-300.66-303.19s149.48-303.21,298.96-303.21c60.3,0,109.56,16.14,147.78,42.46,25.48,16.98,39.92,32.27,39.92,53.5,0,26.33-20.38,41.61-42.46,41.61-17.84,0-29.72-8.5-40.77-16.98-18.68-14.45-56.05-33.13-103.61-33.13-106.17,0-203.84,91.73-203.84,215.73s97.67,215.72,204.68,215.72c84.08,0,165.62-54.36,175.81-151.18h-120.6c-22.08,0-40.77-16.14-40.77-38.22s18.68-38.22,40.77-38.22h161.37c33.97,0,50.11,22.93,48.41,56.05Z"/>
    <path class="cls-2" d="M2130.88,389.79c0,25.49-19.53,42.46-57.75,42.46-74.74,0-123.15,57.75-129.1,102.77v218.28c0,24.62-20.38,45.01-45.01,45.01s-45.01-20.39-45.01-45.01v-357.56c0-25.49,20.38-45.87,45.01-45.87s45.01,20.39,45.01,45.87v56.05c4.25-29.72,57.76-103.61,140.99-103.61,29.72,0,45.86,18.68,45.86,41.61Z"/>
    <path class="cls-2" d="M2507.1,428.85v-33.97c0-24.63,20.38-45.02,45.01-45.02s45.86,20.39,45.86,45.02v359.25c0,24.63-21.23,45.02-45.86,45.02s-45.01-20.39-45.01-45.02v-45.86c-5.95,38.22-58.6,91.72-139.29,91.72-94.28,0-207.23-73.04-207.23-226.76s113.81-225.92,207.23-225.92c62.85,0,117.2,32.28,139.29,81.53ZM2511.35,573.24c0-106.17-71.34-148.63-129.1-148.63-62,0-131.64,48.42-131.64,148.63s69.64,149.47,131.64,149.47c57.76,0,129.1-44.16,129.1-149.47Z"/>
    <path class="cls-2" d="M3120.26,232.67v521.47c0,24.63-21.23,45.02-45.86,45.02s-45.01-20.39-45.01-45.02v-45.86c-5.95,38.22-58.6,91.72-139.29,91.72-94.28,0-207.24-73.04-207.24-226.76s113.81-225.92,207.24-225.92c62.85,0,117.2,32.28,139.29,81.53v-33.97c0-2.56,0-5.95.85-8.5v-153.72c0-24.63,20.38-45.02,44.16-45.02s45.86,20.39,45.86,45.02ZM3033.63,573.24c0-106.17-71.34-148.63-129.1-148.63-62,0-131.64,48.42-131.64,148.63s69.64,149.47,131.64,149.47c57.76,0,129.1-44.16,129.1-149.47Z"/>
    <path class="cls-2" d="M3638.3,558.8c0,34.82-19.55,48.4-56.06,48.4l-284.52-.85c9.34,78.99,71.34,118.06,139.29,118.06,34.81,0,58.59-8.5,84.93-24.63,14.44-7.64,23.78-13.58,35.66-13.58,19.55,0,31.43,13.58,31.43,32.27,0,11.05-4.24,22.94-22.93,38.23-32.28,26.33-78.99,41.61-132.49,41.61-110.4,0-228.46-70.49-228.46-224.22s123.15-226.77,219.96-226.77,213.19,76.43,213.19,211.48ZM3297.72,541.81h253.09c-7.64-80.68-68.79-116.36-125.7-116.36s-119.75,35.67-127.39,116.36Z"/>
    <path class="cls-2" d="M4466.35,239.46c0,8.5-2.56,17.83-5.09,24.63l-154.57,500.24c-7.64,22.08-25.49,33.97-49.27,33.97s-39.92-11.89-47.56-33.97l-148.63-402.58-148.63,402.58c-8.5,22.08-24.62,33.97-48.4,33.97s-41.61-11.89-48.4-33.97l-154.57-500.24c-2.56-6.8-5.95-16.14-5.95-24.63,0-22.93,19.53-42.46,45.02-42.46,20.38,0,39.06,11.89,44.16,28.87l123.15,423.81,152.03-422.96c8.48-21.23,23.77-29.72,40.76-29.72,17.84,0,33.98,8.5,41.62,29.72l152.87,422.96,123.15-423.81c5.11-16.98,23.78-28.87,44.18-28.87,24.61,0,44.16,19.53,44.16,42.46Z"/>
    <path class="cls-2" d="M4913.89,574.09c0,152.02-126.55,225.91-224.22,225.91s-223.39-73.89-223.39-225.91,125.7-226.77,223.39-226.77,224.22,75.59,224.22,226.77ZM4555.47,574.09c0,95.97,68.79,147.78,134.2,147.78s135.03-51.81,135.03-147.78-68.79-148.63-135.03-148.63-134.2,51.81-134.2,148.63Z"/>
    <path class="cls-2" d="M5267.17,389.79c0,25.49-19.55,42.46-57.76,42.46-74.73,0-123.15,57.75-129.09,102.77v218.28c0,24.62-20.4,45.01-45.03,45.01s-45.01-20.39-45.01-45.01v-357.56c0-25.49,20.4-45.87,45.01-45.87s45.03,20.39,45.03,45.87v56.05c4.24-29.72,57.74-103.61,140.97-103.61,29.74,0,45.88,18.68,45.88,41.61Z"/>
    <path class="cls-2" d="M5729.16,759.24c0,21.23-17.84,39.07-39.92,39.07-11.05,0-21.25-5.1-28.04-11.89l-168.16-182.6-59.44,56.9v92.58c0,24.62-20.4,45.01-45.03,45.01s-45.01-20.39-45.01-45.01V232.67c0-24.63,20.4-45.02,45.01-45.02s45.03,20.39,45.03,45.02v321.89l191.09-191.95c7.64-6.79,19.52-12.74,30.57-12.74,22.93,0,40.77,18.69,40.77,40.77,0,11.04-4.26,21.23-11.05,28.87l-136.73,131.65,169.01,180.05c6.79,6.79,11.9,16.99,11.9,28.03Z"/>
  </g>
  <circle class="cls-1" cx="187.5" cy="287.5" r="187.5"/>
  <path class="cls-3" d="M800,100h0v400c0,220.77-179.23,400-400,400h0v-400c0-220.77,179.23-400,400-400Z"/>
</svg>