<?xml version="1.0" encoding="UTF-8"?>
<svg id="Layer_1" data-name="Layer 1" xmlns="http://www.w3.org/2000/svg" viewBox="0 0 4030.3 1000">
  <defs>
    <style>
      .cls-1 {
        fill: #f9ae6a;
      }

      .cls-2 {
        fill: #333;
      }

      .cls-3 {
        fill: #05585b;
      }
    </style>
  </defs>
  <g>
    <path class="cls-2" d="M1787.43,497.3c0,178.46-145.48,301.94-295.19,301.94s-295.19-123.49-295.19-301.94,144.63-301.95,295.19-301.95,295.19,123.49,295.19,301.95ZM1292.63,497.3c0,129.4,93.88,214.83,199.61,214.83s199.61-85.43,199.61-214.83-93.04-214.84-199.61-214.84-199.61,85.43-199.61,214.84Z"/>
    <path class="cls-2" d="M2283.87,544.66v208.08c0,24.52-19.45,44.82-43.99,44.82s-44.82-20.3-44.82-44.82v-208.08c0-84.58-48.22-118.41-103.2-118.41-81.2,0-116.72,72.74-121.8,109.11v217.38c0,24.52-20.3,44.82-44.82,44.82s-44.83-20.3-44.83-44.82v-356.09c0-25.38,20.3-45.68,44.83-45.68s44.82,20.3,44.82,45.68v55.82c4.23-29.6,54.98-103.19,151.4-103.19,82.05,0,162.4,51.59,162.4,195.38Z"/>
    <path class="cls-2" d="M2799.76,241.86c0,22.84-18.61,40.59-40.6,40.59h-133.63v467.73c0,26.22-21.15,48.22-44.82,48.22-25.38,0-46.52-22-46.52-48.22v-467.73h-133.64c-21.99,0-40.59-17.76-40.59-40.59s18.61-40.6,40.59-40.6h358.62c22,0,40.6,17.77,40.6,40.6Z"/>
    <path class="cls-2" d="M3092.37,390.72c0,25.38-19.45,42.29-57.51,42.29-74.43,0-122.64,57.51-128.57,102.35v217.38c0,24.52-20.29,44.82-44.82,44.82s-44.82-20.3-44.82-44.82v-356.09c0-25.38,20.29-45.68,44.82-45.68s44.82,20.3,44.82,45.68v55.82c4.23-29.6,57.52-103.19,140.41-103.19,29.6,0,45.67,18.61,45.67,41.44Z"/>
    <path class="cls-2" d="M3467.04,429.63v-33.83c0-24.53,20.29-44.83,44.82-44.83s45.67,20.3,45.67,44.83v357.77c0,24.53-21.14,44.83-45.67,44.83s-44.82-20.3-44.82-44.83v-45.67c-5.93,38.06-58.36,91.34-138.71,91.34-93.89,0-206.38-72.74-206.38-225.82s113.34-224.99,206.38-224.99c62.58,0,116.71,32.14,138.71,81.2ZM3471.27,573.42c0-105.73-71.05-148.02-128.57-148.02-61.74,0-131.1,48.22-131.1,148.02s69.36,148.86,131.1,148.86c57.51,0,128.57-43.98,128.57-148.86Z"/>
    <path class="cls-2" d="M4030.3,699.44c0,20.3-14.38,31.3-23.68,40.6-36.36,38.06-83.73,57.51-142.09,57.51-100.65,0-222.45-73.59-222.45-224.14s121.8-224.99,222.45-224.99c58.36,0,105.73,19.45,142.09,57.51,9.31,9.31,23.68,20.3,23.68,40.6s-17.77,34.68-36.37,34.68c-16.91,0-29.6-9.31-36.36-16.07-22.84-27.07-58.36-38.91-89.66-38.91-71.05,0-137.01,50.75-137.01,147.17s65.96,146.32,137.01,146.32c31.3,0,66.82-11.84,89.66-38.91,6.76-6.76,19.45-16.07,36.36-16.07,18.61,0,36.37,13.54,36.37,34.68Z"/>
  </g>
  <g>
    <path class="cls-3" d="M797.98,500.16v99.46h-249.37v-99.46c0-82.59-66.94-149.68-149.62-149.68H0V101.01h398.99c220.33,0,398.99,178.73,398.99,399.15Z"/>
    <path class="cls-1" d="M0,499.84v-99.46h249.37v99.46c0,82.59,66.94,149.68,149.62,149.68h398.99v249.47h-398.99C178.66,898.99,0,720.26,0,499.84Z"/>
  </g>
</svg>