<?xml version="1.0" encoding="UTF-8"?>
<svg id="Laag_2" data-name="Laag 2" xmlns="http://www.w3.org/2000/svg" viewBox="0 0 750.63 93.41">
  <defs>
    <style>
      .cls-1 {
        fill: #7b7aac;
      }
    </style>
  </defs>
  <g id="Laag_1-2" data-name="Laag 1">
    <g>
      <path class="cls-1" d="m548.4,45.17c-.75,18.66-13.88,29.34-29.44,29.34-16.69,0-33.09-13.69-33.09-33.47s16.31-33.47,33-33.47c6.75,0,12.38,1.97,16.97,5.25,2.16,1.5,3.28,2.81,3.28,4.69,0,2.16-1.69,3.56-3.66,3.56-1.59,0-2.72-.84-3.94-1.78-2.62-2.16-7.41-4.22-12.75-4.22-12.56,0-24.66,10.88-24.66,25.97s12.09,25.97,24.84,25.97c11.06,0,20.53-7.41,21.66-19.78h-15.66c-1.97,0-3.56-1.5-3.56-3.38s1.59-3.38,3.56-3.38h19.31c2.91,0,4.22,1.97,4.12,4.69Z"/>
      <path class="cls-1" d="m586.75,28.3c0,2.25-1.78,3.75-5.06,3.75-8.91,0-14.81,7.03-15.75,12.84v25.5c0,2.16-1.78,3.94-3.84,3.94s-3.94-1.78-3.94-3.94V28.77c0-2.16,1.78-3.94,3.94-3.94s3.84,1.78,3.84,3.94v7.59c.56-3.19,6.56-11.72,16.59-11.72,2.72,0,4.22,1.59,4.22,3.66Z"/>
      <path class="cls-1" d="m638.87,49.58c0,16.78-13.59,24.94-24.47,24.94s-24.38-8.16-24.38-24.94,13.59-25.03,24.38-25.03,24.47,8.34,24.47,25.03Zm-41.16,0c0,12,8.91,18.09,16.69,18.09s16.69-6.09,16.69-18.09-8.81-18.19-16.69-18.19-16.69,6.09-16.69,18.19Z"/>
      <path class="cls-1" d="m648.25,53.61v-24.84c0-2.06,1.78-3.94,3.94-3.94s3.84,1.88,3.84,3.94v24.84c0,10.22,6.19,14.06,12.75,14.06,9.56,0,14.44-8.06,15.28-13.41v-25.5c0-2.06,1.78-3.94,3.84-3.94s3.94,1.88,3.94,3.94v41.62c0,2.16-1.78,3.94-3.94,3.94s-3.84-1.78-3.84-3.94v-7.59c-.56,3.19-6.38,11.72-17.53,11.72-8.81,0-18.28-5.34-18.28-20.91Z"/>
      <path class="cls-1" d="m750.63,49.49c0,16.88-12.66,25.03-23.06,25.03-8.25,0-14.62-4.88-16.59-10.5v24.19c0,2.16-1.88,3.94-3.94,3.94s-3.94-1.78-3.94-3.94V28.77c0-2.16,1.69-3.94,3.94-3.94,2.06,0,3.84,1.78,3.84,3.94v5.62c2.91-6.28,9.56-9.84,16.69-9.84,10.41,0,23.06,8.25,23.06,24.94Zm-7.78,0c0-12.28-8.81-18.19-16.41-18.19s-15.94,5.34-15.94,18.19,8.62,18.19,15.94,18.19,16.41-5.81,16.41-18.19Z"/>
    </g>
    <path class="cls-1" d="m33.38,83.5c-8.92,0-16.96-5.14-20.7-13.76-.73-1.69-1.79-3.02-3.33-4.19C.13,58.59-2.58,47.02,2.6,36.76c.96-1.9,1.36-3.73,1.29-5.92-.33-11.03,7.25-20.59,18.04-22.74,2.22-.44,4.08-1.33,5.86-2.8,8.59-7.11,20.54-7.06,29.08.12,1.61,1.35,3.24,2.17,5.12,2.57,11.95,2.54,18.91,11.59,18.62,24.19v.24c-.04.48.02,1.84,1.16,4.09,5.42,10.75,2.8,21.95-6.84,29.23-1.3.98-2.33,2.34-3.24,4.28-4.92,10.49-15.35,15.47-26.58,12.68-1.95-.48-3.77-.48-5.71.02-2.02.52-4.03.77-6,.77ZM42.26,14.6c-1.77,0-3.55.66-5.13,1.97-3.67,3.04-7.7,4.96-12.33,5.88-3.69.73-6.38,4.15-6.27,7.94.14,4.64-.8,8.88-2.86,12.97-2,3.96-1.09,7.8,2.51,10.51,3.54,2.67,6.21,6.05,7.94,10.04,1.71,3.95,5.4,5.73,9.62,4.64,4.27-1.1,8.6-1.12,12.88-.06,4.46,1.11,7.85-.52,9.81-4.69,1.93-4.12,4.44-7.31,7.67-9.75,3.96-2.99,4.8-6.57,2.59-10.97-1.98-3.92-2.89-7.74-2.72-11.35.1-5.47-2.07-8.39-7.03-9.44-4.21-.9-8.07-2.81-11.5-5.69-1.6-1.34-3.39-2.01-5.18-2.01Z"/>
    <g>
      <path class="cls-1" d="m160.56,30.31c0,11.72-9.47,21.47-24.09,21.47h-10.31v15.47c0,4.22-3.38,7.69-7.59,7.69s-7.78-3.47-7.78-7.69V17.1c0-4.97,3.56-8.53,8.53-8.53h17.16c14.62,0,24.09,9.94,24.09,21.75Zm-14.91,0c0-7.03-4.69-8.62-10.03-8.62h-9.47v16.97h9.47c5.34,0,10.03-1.41,10.03-8.34Z"/>
      <path class="cls-1" d="m215.59,32.56v34.78c0,4.12-3.66,7.41-7.69,7.41-3.47,0-6.56-2.44-7.31-5.81-1.41,2.44-5.53,5.91-12.38,5.91-10.31,0-22.5-7.88-22.5-25.03s12.38-24.94,22.5-24.94c6.38,0,10.97,3.56,12.19,6.84v.84c0-4.03,3.47-7.41,7.5-7.41s7.69,3.38,7.69,7.41Zm-14.53,17.25c0-9.19-5.91-12.19-10.03-12.19-5.34,0-10.31,4.22-10.31,12.19s4.97,12.28,10.31,12.28c4.12,0,10.03-2.91,10.03-12.28Z"/>
      <path class="cls-1" d="m262,31.72c0,4.22-3.09,7.03-9.47,7.03s-10.5,4.97-10.69,7.69v20.81c0,4.03-3.47,7.41-7.5,7.41s-7.5-3.38-7.5-7.41v-34.5c0-4.22,3.47-7.59,7.5-7.59s7.5,3.38,7.5,7.59v2.91c.28-3.47,5.91-10.69,13.41-10.69,4.5,0,6.75,3.19,6.75,6.75Z"/>
      <path class="cls-1" d="m315.16,32.56v34.78c0,4.12-3.66,7.41-7.69,7.41-3.47,0-6.56-2.44-7.31-5.81-1.41,2.44-5.53,5.91-12.38,5.91-10.31,0-22.5-7.88-22.5-25.03s12.38-24.94,22.5-24.94c6.38,0,10.97,3.56,12.19,6.84v.84c0-4.03,3.47-7.41,7.5-7.41s7.69,3.38,7.69,7.41Zm-14.53,17.25c0-9.19-5.91-12.19-10.03-12.19-5.34,0-10.31,4.22-10.31,12.19s4.97,12.28,10.31,12.28c4.12,0,10.03-2.91,10.03-12.28Z"/>
      <path class="cls-1" d="m374.41,67.35c0,.66-.09,1.31-.28,1.97v3.94c0,15.19-14.62,20.16-24.56,20.16-5.62,0-10.31-1.5-12.38-2.16-3.28-1.41-4.97-3.75-4.97-6.47,0-3.38,2.72-5.91,5.91-5.91.47,0,1.31,0,2.72.47,1.69.09,4.59,1.31,8.72,1.31,6.94,0,9.66-4.03,9.66-7.41v-4.03c-1.5,2.44-5.62,5.62-12.19,5.62-10.31,0-22.5-7.88-22.5-25.03s12.38-24.94,22.5-24.94c6.38,0,10.97,3.56,12.19,6.84v.84c0-4.03,3.47-7.41,7.5-7.41s7.69,3.38,7.69,7.41v34.78Zm-14.53-17.53c0-9.19-5.91-12.19-10.03-12.19-5.34,0-10.31,4.22-10.31,12.19s4.97,12.28,10.31,12.28c4.12,0,10.03-2.91,10.03-12.28Z"/>
      <path class="cls-1" d="m385.57,13.72c0-4.03,3.56-7.41,7.59-7.41s7.59,3.38,7.59,7.41-3.56,7.31-7.59,7.31-7.59-3.38-7.59-7.31Zm15.09,19.03v34.41c0,4.22-3.47,7.59-7.5,7.59s-7.5-3.38-7.5-7.59v-34.41c0-4.22,3.47-7.59,7.5-7.59s7.5,3.38,7.5,7.59Z"/>
      <path class="cls-1" d="m459.63,48.22v19.03c0,4.12-3.38,7.41-7.5,7.41s-7.41-3.28-7.41-7.41v-19.03c0-7.31-3.38-10.59-8.34-10.59-7.69,0-9.38,7.78-9.38,8.81v20.81c0,4.12-3.47,7.41-7.5,7.41s-7.5-3.28-7.5-7.41v-34.5c0-4.22,3.47-7.59,7.5-7.59s7.5,3.38,7.5,7.59v2.91c.28-3.47,5.62-10.69,15.19-10.69s17.44,6.75,17.44,23.25Z"/>
    </g>
  </g>
</svg>