<?xml version="1.0" encoding="UTF-8"?>
<svg id="Layer_1" data-name="Layer 1" xmlns="http://www.w3.org/2000/svg" viewBox="0 0 5475.75 1000">
  <defs>
    <style>
      .cls-1 {
        fill: #a2d169;
      }

      .cls-2 {
        fill: #333;
      }

      .cls-3 {
        fill: #2d5d82;
      }
    </style>
  </defs>
  <path class="cls-3" d="M800,501.14c0,221.83-179.83,401.67-401.67,401.67-204.33,0-373-152.53-398.33-350,62.25,0,121.58-12.67,175.5-35.5,7.5-3.19,14.89-6.58,22.14-10.14.81-.39,1.61-.78,2.39-1.19,1.69,108.97,90.58,196.83,199.97,196.83s200-89.56,200-200-87.86-198.28-196.83-199.97c.42-.78.8-1.58,1.19-2.39,3.56-7.25,6.94-14.64,10.14-22.14,22.83-53.92,35.5-113.25,35.5-175.5,197.47,25.33,350,194,350,398.33Z"/>
  <path class="cls-1" d="M368.29,258.78c-2.82,6.67-5.83,13.23-8.99,19.7h.12c-19.53,39.9-45.53,76.07-76.59,107.16-31.09,31.06-67.26,57.06-107.16,76.59v-.12c-6.47,3.16-13.04,6.17-19.7,8.99-47.92,20.34-100.61,31.6-155.97,31.63C.05,281.87,179.06,102.86,399.92,102.81c-.02,55.36-11.28,108.05-31.63,155.97Z"/>
  <g>
    <path class="cls-2" d="M1686.13,706.96c0,21.21-14.42,36.48-39.87,53.44-38.17,26.3-87.37,42.41-147.59,42.41-149.3,0-298.58-123.84-298.58-302.81s149.28-302.82,298.58-302.82c60.22,0,109.42,16.12,147.59,42.41,25.45,16.96,39.87,32.23,39.87,53.44,0,26.29-20.36,41.56-42.42,41.56-17.81,0-29.68-8.48-40.71-16.96-18.66-14.43-55.98-33.09-103.48-33.09-106.03,0-203.58,91.62-203.58,215.46s97.55,215.45,203.58,215.45c47.5,0,84.82-18.66,103.48-33.08,11.03-8.48,22.9-16.97,40.71-16.97,22.06,0,42.42,15.27,42.42,41.56Z"/>
    <path class="cls-2" d="M2180.6,577.19c0,151.82-126.38,225.62-223.93,225.62s-223.08-73.8-223.08-225.62,125.54-226.48,223.08-226.48,223.93,75.5,223.93,226.48ZM1822.65,577.19c0,95.85,68.7,147.59,134.02,147.59s134.88-51.75,134.88-147.59-68.72-148.44-134.88-148.44-134.02,51.75-134.02,148.44Z"/>
    <path class="cls-2" d="M2586.02,432.14v-33.93c0-24.6,20.36-44.96,44.96-44.96s45.8,20.36,45.8,44.96v358.8c0,24.6-21.21,44.96-45.8,44.96s-44.96-20.36-44.96-44.96v-45.8c-5.93,38.17-58.52,91.61-139.11,91.61-94.16,0-206.96-72.95-206.96-226.47s113.66-225.63,206.96-225.63c62.77,0,117.06,32.24,139.11,81.43ZM2590.27,576.34c0-106.03-71.26-148.44-128.95-148.44-61.92,0-131.48,48.35-131.48,148.44s69.55,149.28,131.48,149.28c57.69,0,128.95-44.1,128.95-149.28Z"/>
    <path class="cls-2" d="M3150.91,702.72c0,20.36-14.43,31.39-23.75,40.72-36.48,38.17-83.98,57.68-142.5,57.68-100.94,0-223.09-73.8-223.09-224.78s122.15-225.63,223.09-225.63c58.52,0,106.02,19.51,142.5,57.68,9.32,9.34,23.75,20.36,23.75,40.72s-17.81,34.78-36.48,34.78c-16.97,0-29.68-9.34-36.47-16.12-22.9-27.14-58.53-39.02-89.92-39.02-71.26,0-137.42,50.9-137.42,147.59s66.16,146.74,137.42,146.74c31.39,0,67.01-11.88,89.92-39.02,6.78-6.78,19.5-16.12,36.47-16.12,18.67,0,36.48,13.58,36.48,34.78Z"/>
    <path class="cls-2" d="M3640.29,547.49v208.68c0,24.59-19.5,44.95-44.1,44.95s-44.95-20.36-44.95-44.95v-208.68c0-84.82-48.35-118.75-103.49-118.75-81.43,0-117.06,72.95-122.14,109.42v218c0,24.59-20.36,44.95-44.95,44.95s-44.96-20.36-44.96-44.95V236.2c0-24.6,20.36-44.96,44.96-44.96s44.95,20.36,44.95,44.96v218.84c4.23-29.68,55.14-103.48,151.82-103.48,82.29,0,162.86,51.74,162.86,195.94Z"/>
    <path class="cls-2" d="M4103.38,393.97c0,8.48-2.54,14.42-5.09,20.36l-156.08,350.31c-10.16,21.21-22.9,33.94-44.95,33.94s-34.78-12.73-44.95-33.94l-156.08-350.31c-2.54-5.94-5.08-11.88-5.08-20.36,0-22.05,17.81-40.72,41.55-40.72,16.97,0,33.09,9.34,42.42,30.55l122.14,287.54,122.15-287.54c8.48-21.21,25.44-30.55,42.41-30.55,23.75,0,41.56,18.67,41.56,40.72Z"/>
    <path class="cls-2" d="M4179.69,227.71c0-24.6,21.2-44.96,45.8-44.96s45.8,20.36,45.8,44.96-21.2,44.95-45.8,44.95-45.8-20.36-45.8-44.95ZM4270.44,399.06v357.11c0,25.44-20.35,45.8-44.95,45.8s-44.95-20.36-44.95-45.8v-357.11c0-25.45,20.35-45.81,44.95-45.81s44.95,20.36,44.95,45.81Z"/>
    <path class="cls-2" d="M4788.71,561.92c0,34.78-19.51,48.34-55.99,48.34l-284.16-.85c9.34,78.89,71.26,117.91,139.12,117.91,34.78,0,58.52-8.48,84.82-24.6,14.42-7.63,23.75-13.57,35.62-13.57,19.51,0,31.39,13.57,31.39,32.23,0,11.04-4.24,22.91-22.9,38.18-32.23,26.29-78.88,41.56-132.33,41.56-110.26,0-228.17-70.41-228.17-223.93s123-226.48,219.7-226.48,212.91,76.34,212.91,211.22ZM4448.56,544.95h252.78c-7.63-80.58-68.7-116.21-125.53-116.21s-119.61,35.63-127.24,116.21Z"/>
    <path class="cls-2" d="M5475.75,395.66c0,6.79-3.39,12.73-5.93,20.36l-119.61,348.62c-7.63,22.06-23.75,33.94-42.41,33.94s-34.78-11.88-44.1-33.94l-114.52-279.91-115.36,279.91c-8.48,22.06-24.6,33.94-43.26,33.94s-34.78-11.88-42.41-33.94l-119.6-348.62c-2.54-7.63-5.94-13.57-5.94-20.36,0-23.74,18.67-42.41,42.42-42.41,16.11,0,33.08,10.19,38.17,24.6l93.31,288.4,111.97-285.01c6.78-17.81,21.2-27.99,40.71-27.99s33.09,10.19,40.72,27.99l111.97,285.01,93.31-288.4c4.24-15.27,22.05-24.6,38.17-24.6,23.75,0,42.41,18.67,42.41,42.41Z"/>
  </g>
</svg>