<?xml version="1.0" encoding="UTF-8"?>
<svg id="Layer_1" data-name="Layer 1" xmlns="http://www.w3.org/2000/svg" viewBox="0 0 3525.4 1000">
  <defs>
    <style>
      .cls-1 {
        fill: #85b6b7;
      }

      .cls-2 {
        fill: #333;
      }

      .cls-3 {
        fill: #036073;
      }
    </style>
  </defs>
  <g>
    <path class="cls-2" d="M1793.07,496.68c0,179.27-146.14,303.32-296.54,303.32s-296.53-124.05-296.53-303.32,145.29-303.33,296.53-303.33,296.54,124.05,296.54,303.33ZM1296.02,496.68c0,129.99,94.31,215.81,200.52,215.81s200.52-85.82,200.52-215.81-93.46-215.82-200.52-215.82-200.52,85.82-200.52,215.82Z"/>
    <path class="cls-2" d="M2521.18,241.78v509.8c0,25.49-20.39,47.57-46.73,47.57s-46.73-22.09-46.73-47.57v-344.97l-183.53,342.42c-9.35,17-23.79,25.5-39.94,25.5s-31.44-8.5-39.93-25.5l-184.38-342.42v344.97c0,25.49-21.24,47.57-45.89,47.57-26.34,0-47.58-22.09-47.58-47.57V241.78c0-28.04,21.24-42.48,41.63-42.48s37.39,13.59,47.58,30.59l228.56,415.49,228.56-415.49c9.35-17,28.04-30.59,47.58-30.59s40.78,14.44,40.78,42.48Z"/>
    <path class="cls-2" d="M3045.36,387.92c0,111.3-84.11,189.47-216.66,189.47h-113.86v175.03c0,25.49-20.39,46.73-45.03,46.73-26.34,0-46.73-21.25-46.73-46.73V249.42c0-28.88,21.24-50.13,50.13-50.13h155.49c132.55,0,216.66,81.57,216.66,188.63ZM2956.15,387.92c0-74.77-52.68-109.61-130.85-109.61h-110.46v220.06h110.46c78.17,0,130.85-31.44,130.85-110.45Z"/>
    <path class="cls-2" d="M3525.4,240.08c0,22.94-18.69,40.78-40.78,40.78h-134.25v469.87c0,26.34-21.24,48.44-45.03,48.44-25.49,0-46.73-22.1-46.73-48.44v-469.87h-134.25c-22.09,0-40.78-17.84-40.78-40.78s18.69-40.79,40.78-40.79h360.26c22.09,0,40.78,17.85,40.78,40.79Z"/>
  </g>
  <path class="cls-3" d="M400,100C179.16,100,0,279.01,0,500s179.16,400,400,400,400-179.15,400-400S620.84,100,400,100ZM400,596.08c-53.05,0-96.08-43.03-96.08-96.08s43.03-96.23,96.08-96.23,96.08,43.03,96.08,96.23-43.04,96.08-96.08,96.08Z"/>
  <path class="cls-1" d="M400,250c-138.1,0-250,111.9-250,250s111.9,250,250,250,250-111.9,250-250-111.9-250-250-250ZM400,595.18c-52.55,0-95.18-42.63-95.18-95.18s42.63-95.32,95.18-95.32,95.18,42.63,95.18,95.32-42.63,95.18-95.18,95.18Z"/>
</svg>