<?xml version="1.0" encoding="UTF-8"?>
<svg id="Layer_1" data-name="Layer 1" xmlns="http://www.w3.org/2000/svg" viewBox="0 0 4612.71 1000.06">
  <defs>
    <style>
      .cls-1 {
        fill: #fede70;
      }

      .cls-2 {
        fill: #214b6d;
      }

      .cls-3 {
        fill: #333;
      }
    </style>
  </defs>
  <g>
    <path class="cls-3" d="M1793.35,497.32c0,178.92-145.86,302.73-295.96,302.73s-295.95-123.81-295.95-302.73,145.01-302.74,295.95-302.74,295.96,123.81,295.96,302.74ZM1297.27,497.32c0,129.74,94.13,215.39,200.12,215.39s200.13-85.65,200.13-215.39-93.28-215.4-200.13-215.4-200.12,85.65-200.12,215.4Z"/>
    <path class="cls-3" d="M2291.08,544.8v208.62c0,24.58-19.5,44.94-44.1,44.94s-44.94-20.35-44.94-44.94v-208.62c0-84.8-48.34-118.72-103.46-118.72-81.41,0-117.02,72.93-122.11,109.39v217.94c0,24.58-20.35,44.94-44.94,44.94s-44.95-20.35-44.95-44.94v-357.01c0-25.45,20.35-45.8,44.95-45.8s44.94,20.35,44.94,45.8v55.96c4.24-29.68,55.12-103.45,151.79-103.45,82.26,0,162.82,51.72,162.82,195.88Z"/>
    <path class="cls-3" d="M2738.77,269.2c12.72,16.11,19.5,28.84,19.5,42.4,0,20.35-15.26,36.47-38.16,36.47-16.96,0-29.69-7.63-39.01-19.5-23.75-31.38-50.03-53.42-98.37-53.42-60.2,0-97.52,31.38-97.52,78.02,0,37.31,24.6,64.44,79.72,85.65l41.55,16.1c119.57,45.8,180.62,89.05,180.62,174.69,0,112.79-111.08,170.45-209.46,170.45-72.08,0-145.85-31.37-184.01-89.88-6.78-9.33-17.81-24.6-17.81-43.25,0-20.35,12.72-39.86,38.17-39.86,20.34,0,34.77,12.72,44.09,27.14,28.84,44.1,71.24,64.44,119.57,64.44,53.43,0,115.34-22.9,115.34-89.04,0-53.42-39.86-73.78-105.15-99.21l-45.79-17.8c-84.81-33.08-148.4-77.17-148.4-160.28,0-95.82,83.1-157.72,185.71-157.72,78.02,0,128.05,33.92,159.43,74.62Z"/>
    <path class="cls-3" d="M3086.42,748.33c0,34.77-39.86,50.03-87.35,50.03-50.88,0-100.91-17.81-100.91-115.33v-257.8h-32.23c-22.04,0-36.46-14.41-36.46-36.46s14.41-35.62,36.46-35.62h32.23v-66.14c0-23.75,20.35-44.1,44.1-44.1s44.94,20.35,44.94,44.1v66.14h61.9c22.06,0,37.32,14.41,37.32,35.62s-15.26,36.46-37.32,36.46h-61.9v258.64c0,25.45,10.18,37.32,29.69,37.32,11.02,0,23.73-3.39,33.07-4.24,21.21-3.39,36.47,10.17,36.47,31.38Z"/>
    <path class="cls-3" d="M3483.26,429.48v-33.92c0-24.6,20.34-44.95,44.94-44.95s45.79,20.35,45.79,44.95v358.7c0,24.6-21.19,44.95-45.79,44.95s-44.94-20.35-44.94-44.95v-45.79c-5.94,38.16-58.51,91.58-139.07,91.58-94.13,0-206.92-72.93-206.92-226.41s113.64-225.57,206.92-225.57c62.74,0,117.02,32.23,139.07,81.41ZM3487.5,573.64c0-106-71.24-148.4-128.9-148.4-61.9,0-131.44,48.34-131.44,148.4s69.54,149.24,131.44,149.24c57.66,0,128.9-44.09,128.9-149.24Z"/>
    <path class="cls-3" d="M4095.48,754.26c0,2.55,0,5.94-.85,8.48v22.9c0,139.07-125.51,182.32-215.39,182.32-54.27,0-96.67-15.26-116.18-25.44-17.81-7.63-27.99-21.21-27.99-38.16,0-20.35,16.11-35.62,35.62-35.62,5.08,0,11.87.85,21.19,4.24,18.65,7.63,50.03,17.8,89.04,17.8,73.78,0,123.81-38.16,123.81-105.15v-77.17c-5.93,38.16-58.51,91.58-139.07,91.58-94.13,0-206.92-72.93-206.92-226.41s113.64-225.57,206.92-225.57c62.75,0,117.03,32.23,139.07,81.41v-33.92c0-24.6,20.35-44.95,44.94-44.95s45.8,20.35,45.8,44.95v358.7ZM4008.98,573.64c0-106-71.23-148.4-128.9-148.4-61.9,0-131.44,48.34-131.44,148.4s69.54,149.24,131.44,149.24c57.67,0,128.9-44.09,128.9-149.24Z"/>
    <path class="cls-3" d="M4612.71,559.23c0,34.77-19.5,48.33-55.97,48.33l-284.08-.85c9.33,78.87,71.24,117.88,139.08,117.88,34.77,0,58.5-8.48,84.8-24.6,14.41-7.63,23.75-13.56,35.61-13.56,19.5,0,31.38,13.56,31.38,32.22,0,11.03-4.24,22.91-22.9,38.17-32.22,26.29-78.86,41.55-132.29,41.55-110.23,0-228.11-70.39-228.11-223.87s122.97-226.42,219.64-226.42,212.85,76.32,212.85,211.16ZM4272.65,542.26h252.71c-7.63-80.56-68.69-116.18-125.5-116.18s-119.58,35.62-127.21,116.18Z"/>
  </g>
  <path class="cls-1" d="M800.03,500.01c0,220.84-179.14,400-400.06,400S.03,720.85.03,500.01h800Z"/>
  <path class="cls-2" d="M400.03,100.02h400v400c-220.89,0-400-179.12-400-400"/>
  <path class="cls-2" d="M.03,500.01V100.01h400C400.03,320.89,220.91,500.01.03,500.01"/>
</svg>