<?xml version="1.0" encoding="UTF-8"?>
<svg id="Layer_1" data-name="Layer 1" xmlns="http://www.w3.org/2000/svg" viewBox="0 0 3716.53 1000">
  <defs>
    <style>
      .cls-1 {
        fill: #cddb6c;
      }

      .cls-2 {
        fill: #2f5c43;
      }

      .cls-3 {
        fill: #333;
      }
    </style>
  </defs>
  <g>
    <path class="cls-3" d="M1563.04,269.34c12.74,16.12,19.52,28.84,19.52,42.41,0,20.36-15.27,36.48-38.17,36.48-16.97,0-29.7-7.63-39.02-19.51-23.75-31.39-50.06-53.44-98.4-53.44-60.23,0-97.55,31.39-97.55,78.04,0,37.32,24.6,64.46,79.74,85.67l41.55,16.11c119.61,45.81,180.68,89.08,180.68,174.74,0,112.82-111.12,170.5-209.51,170.5-72.1,0-145.89-31.37-184.06-89.9-6.78-9.34-17.82-24.6-17.82-43.26,0-20.36,12.73-39.87,38.17-39.87,20.36,0,34.79,12.73,44.11,27.14,28.84,44.11,71.24,64.46,119.6,64.46,53.44,0,115.36-22.9,115.36-89.06,0-53.44-39.87-73.8-105.17-99.24l-45.8-17.81c-84.82-33.09-148.44-77.19-148.44-160.32,0-95.85,83.12-157.77,185.76-157.77,78.04,0,128.07,33.93,159.46,74.64Z"/>
    <path class="cls-3" d="M2081.28,759.62c0,21.2-17.81,39.02-39.86,39.02-11.04,0-21.21-5.09-28.01-11.88l-167.94-182.37-59.38,56.83v92.47c0,24.59-20.36,44.95-44.95,44.95s-44.96-20.36-44.96-44.95V233.72c0-24.6,20.36-44.96,44.96-44.96s44.95,20.36,44.95,44.96v321.48l190.86-191.71c7.63-6.78,19.51-12.73,30.54-12.73,22.9,0,40.72,18.67,40.72,40.72,0,11.03-4.25,21.2-11.04,28.83l-136.56,131.49,168.79,179.82c6.78,6.78,11.88,16.97,11.88,27.99Z"/>
    <path class="cls-3" d="M2153.33,225.23c0-24.6,21.21-44.96,45.8-44.96s45.8,20.36,45.8,44.96-21.2,44.95-45.8,44.95-45.8-20.36-45.8-44.95ZM2244.09,396.58v357.11c0,25.44-20.36,45.8-44.96,45.8s-44.95-20.36-44.95-45.8v-357.11c0-25.45,20.36-45.81,44.95-45.81s44.96,20.36,44.96,45.81Z"/>
    <path class="cls-3" d="M2391.68,798.64c-24.6,0-44.96-20.36-44.96-44.95V233.72c0-24.6,20.36-44.96,44.96-44.96s44.95,20.36,44.95,44.96v519.97c0,24.59-20.36,44.95-44.95,44.95Z"/>
    <path class="cls-3" d="M2583.35,798.64c-24.6,0-44.95-20.36-44.95-44.95V233.72c0-24.6,20.35-44.96,44.95-44.96s44.95,20.36,44.95,44.96v519.97c0,24.59-20.35,44.95-44.95,44.95Z"/>
    <path class="cls-3" d="M3017.62,414.39c5.1,7.63,11.89,16.97,11.89,31.39,0,21.2-16.12,33.93-36.48,33.93-13.58,0-26.29-5.93-39.02-22.9-16.96-21.2-40.71-35.63-75.5-35.63-42.4,0-67.85,21.21-67.85,51.75,0,21.2,11.88,41.56,56.84,54.29l52.59,14.42c72.11,19.51,126.39,51.75,126.39,122.99,0,89.08-83.98,134.03-172.2,134.03-73.81,0-125.54-32.24-147.59-67.01-4.24-5.93-17.82-22.9-17.82-43.26,0-17.81,11.04-36.47,34.79-36.47,19.5,0,29.68,11.88,38.17,24.59,21.2,35.63,55.98,47.5,92.46,47.5,49.19,0,83.12-20.36,83.12-54.29,0-25.44-17.81-44.1-60.22-55.98l-56.84-15.27c-82.27-22.91-117.9-67.01-117.9-124.69,0-79.74,72.1-125.54,154.38-125.54,61.08,0,113.67,24.6,140.8,66.16Z"/>
    <path class="cls-3" d="M3171.98,798.64c-24.6,0-44.96-20.36-44.96-44.95V233.72c0-24.6,20.36-44.96,44.96-44.96s44.95,20.36,44.95,44.96v519.97c0,24.59-20.36,44.95-44.95,44.95Z"/>
    <path class="cls-3" d="M3716.53,391.49c0,8.48-2.55,14.42-5.1,20.36l-226.47,517.42c-9.32,21.21-25.44,30.54-42.41,30.54-23.75,0-39.87-18.66-39.87-40.71,0-8.48,2.55-14.42,5.09-20.36l52.6-121.3-162.02-365.58c-2.54-5.94-5.09-11.88-5.09-20.36,0-22.05,17.82-40.72,41.57-40.72,16.97,0,33.08,9.34,42.41,30.55l127.23,296.03,128.08-296.03c9.32-21.21,25.44-30.55,42.41-30.55,23.75,0,41.57,18.67,41.57,40.72Z"/>
  </g>
  <path class="cls-2" d="M0,900C0,679.11,179.11,500,400,500s400,179.11,400,400H0Z"/>
  <path class="cls-1" d="M800,500c-34.22,0-67.45-4.33-99.22-12.33-.33-.11-.67-.22-1.11-.34-32.89-8.56-64.22-21.11-93.33-37.22v-.11c-2.11-1.11-4.22-2.33-6.33-3.55-3-1.67-5.89-3.45-8.78-5.22-25.11-15.33-48.33-33.33-69.33-53.67l-9.44-9.45c-20.33-21-38.33-44.22-53.67-69.33-1.78-2.89-3.56-5.78-5.22-8.78-1.22-2.11-2.44-4.22-3.56-6.33h-.11c-16.11-29.11-28.67-60.45-37.22-93.34-.11-.44-.22-.78-.33-1.11-8-31.78-12.33-65-12.33-99.22,34.22,0,67.45,4.33,99.22,12.33.33.11.67.22,1.11.34,32.89,8.55,64.22,21.11,93.33,37.22v.11c2.11,1.11,4.11,2.33,6.22,3.55h.11c3,1.67,5.89,3.45,8.78,5.22,25.11,15.33,48.33,33.33,69.33,53.67l9.45,9.45c20.33,21,38.33,44.22,53.66,69.33,1.78,2.89,3.56,5.78,5.22,8.78,1.22,2.11,2.45,4.22,3.56,6.33h.11c16.11,29.11,28.67,60.44,37.22,93.34.11.44.22.78.33,1.11,8,31.78,12.33,65,12.33,99.22Z"/>
  <path class="cls-1" d="M400,100c0,34.22-4.33,67.45-12.33,99.22-.11.33-.22.67-.34,1.11-8.56,32.89-21.11,64.22-37.22,93.33h-.11c-1.11,2.11-2.33,4.22-3.55,6.33-1.67,3-3.45,5.89-5.22,8.78-15.33,25.11-33.33,48.33-53.67,69.33l-9.45,9.44c-21,20.33-44.22,38.33-69.33,53.67-2.89,1.78-5.78,3.56-8.78,5.22-2.11,1.22-4.22,2.44-6.33,3.56v.11c-29.11,16.11-60.45,28.67-93.34,37.22-.44.11-.78.22-1.11.33C67.44,495.67,34.22,500,0,500,0,465.78,4.33,432.55,12.33,400.78c.11-.33.22-.67.34-1.11,8.55-32.89,21.11-64.22,37.22-93.33h.11c1.11-2.11,2.33-4.11,3.55-6.22v-.11c1.67-3,3.45-5.89,5.22-8.78,15.33-25.11,33.33-48.33,53.67-69.33l9.45-9.45c21-20.33,44.22-38.33,69.33-53.66,2.89-1.78,5.78-3.56,8.78-5.22,2.11-1.22,4.22-2.45,6.33-3.56v-.11c29.11-16.11,60.44-28.67,93.34-37.22.44-.11.78-.22,1.11-.33,31.78-8,65-12.33,99.22-12.33Z"/>
</svg>